<svg width="352" height="77" viewBox="0 0 352 77" fill="none" xmlns="http://www.w3.org/2000/svg">
<path d="M78.3051 34.1695C78.3051 33.3153 78.8746 32.7458 79.7288 32.7458H82.5763C83.4305 32.7458 84 33.3153 84 34.1695C84 35.0237 83.4305 35.5932 82.5763 35.5932H79.7288C78.8746 35.5932 78.3051 35.0237 78.3051 34.1695ZM61.2203 51.9661C60.3661 51.9661 59.7966 52.5356 59.7966 53.3898C59.7966 54.2441 60.3661 54.8136 61.2203 54.8136H68.339C69.1932 54.8136 69.7627 54.2441 69.7627 53.3898C69.7627 52.5356 69.1932 51.9661 68.339 51.9661H61.2203ZM56.9491 41.2881C56.0949 41.2881 55.5254 40.7187 55.5254 39.8644C55.5254 39.0102 56.0949 38.4407 56.9491 38.4407H69.7627C71.3288 38.4407 72.6102 37.1593 72.6102 35.5932C72.6102 34.0271 71.3288 32.7458 69.7627 32.7458C68.9085 32.7458 68.1966 33.0305 67.7695 33.6C67.2 34.1695 66.3458 34.1695 65.7763 33.6C65.2068 33.0305 65.2068 32.1763 65.7763 31.6068C66.7729 30.6102 68.1966 29.8983 69.7627 29.8983C72.8949 29.8983 75.4576 32.461 75.4576 35.5932C75.4576 38.7254 72.8949 41.2881 69.7627 41.2881H56.9491ZM79.7288 44.1356C80.583 44.1356 81.1525 43.5661 81.1525 42.7119C81.1525 41.8576 80.583 41.2881 79.7288 41.2881C79.3017 41.2881 79.0169 41.4305 78.7322 41.7153C78.1627 42.2848 77.3085 42.2848 76.739 41.7153C76.1695 41.1458 76.1695 40.2915 76.739 39.722C77.4508 38.8678 78.5898 38.4407 79.7288 38.4407C82.1492 38.4407 84 40.2915 84 42.7119C84 45.1322 82.1492 46.9831 79.7288 46.9831H66.9153C66.061 46.9831 65.4915 46.4136 65.4915 45.5593C65.4915 44.7051 66.061 44.1356 66.9153 44.1356H79.7288ZM78.3051 51.9661H71.1864C70.3322 51.9661 69.7627 51.3966 69.7627 50.5424C69.7627 49.6881 70.3322 49.1187 71.1864 49.1187H78.3051C80.7254 49.1187 82.5763 50.9695 82.5763 53.3898C82.5763 55.8102 80.7254 57.661 78.3051 57.661C77.1661 57.661 76.0271 57.2339 75.3153 56.3797C74.7458 55.8102 74.7458 54.9559 75.3153 54.3865C75.8847 53.817 76.739 53.817 77.3085 54.3865C77.5932 54.6712 77.878 54.8136 78.3051 54.8136C79.1593 54.8136 79.7288 54.2441 79.7288 53.3898C79.7288 52.5356 79.1593 51.9661 78.3051 51.9661Z" fill="#808080"/>
<path d="M44.6749 61.4941L40.4822 60.6792L35.3583 68.3854L38.8522 69.0646L36.4457 75.8487L43.5883 67.0844L40.7931 66.5411L44.6749 61.4941Z" fill="#F49204"/>
<path d="M37.0972 62.4644C37.0204 62.1795 36.8349 61.9372 36.5815 61.7906C36.3281 61.6442 36.0275 61.6056 35.746 61.6833C35.4644 61.761 35.2248 61.9486 35.0799 62.2049L32.8782 66.1026C32.7415 66.3584 32.7091 66.6582 32.7881 66.9378C32.867 67.2174 33.0509 67.4547 33.3005 67.599C33.55 67.7433 33.8455 67.7831 34.1237 67.7099C34.4019 67.6367 34.6408 67.4563 34.7893 67.2073L36.9911 63.3096C37.1358 63.0532 37.174 62.7492 37.0972 62.4644Z" fill="#05A5E3"/>
<path d="M48.8094 62.4644C48.7326 62.1795 48.5472 61.9372 48.2938 61.7906C48.0403 61.6442 47.7398 61.6056 47.4582 61.6833C47.1766 61.761 46.9371 61.9486 46.7922 62.2049L44.5904 66.1026C44.4537 66.3584 44.4214 66.6582 44.5003 66.9378C44.5792 67.2174 44.7631 67.4547 45.0127 67.599C45.2623 67.7433 45.5578 67.7831 45.836 67.7099C46.1142 67.6367 46.3531 67.4563 46.5015 67.2073L48.7033 63.3096C48.8481 63.0532 48.8862 62.7492 48.8094 62.4644Z" fill="#05A5E3"/>
<path d="M35.6734 53.4983C35.5967 53.2134 35.4112 52.9711 35.1578 52.8246C34.9044 52.6781 34.6038 52.6395 34.3222 52.7172C34.0406 52.7949 33.8011 52.9825 33.6562 53.2388L31.4544 57.1366C31.3177 57.3924 31.2854 57.6921 31.3643 57.9717C31.4432 58.2514 31.6271 58.4887 31.8767 58.6329C32.1263 58.7772 32.4218 58.817 32.7 58.7438C32.9782 58.6706 33.2171 58.4903 33.3656 58.2413L35.5673 54.3436C35.7121 54.0872 35.7502 53.7831 35.6734 53.4983Z" fill="#05A5E3"/>
<path d="M42.5043 53.4983C42.4276 53.2134 42.2421 52.9711 41.9887 52.8246C41.7353 52.6781 41.4347 52.6395 41.1531 52.7172C40.8715 52.7949 40.632 52.9825 40.4871 53.2388L38.2853 57.1366C38.1486 57.3924 38.1163 57.6921 38.1952 57.9717C38.2741 58.2514 38.458 58.4887 38.7076 58.6329C38.9572 58.7772 39.2527 58.817 39.5309 58.7438C39.8091 58.6706 40.048 58.4903 40.1965 58.2413L42.3982 54.3436C42.543 54.0872 42.5811 53.7831 42.5043 53.4983Z" fill="#05A5E3"/>
<path d="M49.3352 53.4983C49.2585 53.2134 49.073 52.9711 48.8196 52.8246C48.5662 52.6781 48.2656 52.6395 47.984 52.7172C47.7024 52.7949 47.4629 52.9825 47.318 53.2388L45.1162 57.1366C44.9795 57.3924 44.9472 57.6921 45.0261 57.9717C45.105 58.2514 45.2889 58.4887 45.5385 58.6329C45.7881 58.7772 46.0836 58.817 46.3618 58.7438C46.64 58.6706 46.8789 58.4903 47.0274 58.2413L49.2291 54.3436C49.3739 54.0872 49.412 53.7831 49.3352 53.4983Z" fill="#05A5E3"/>
<path d="M16.5445 12.0064L25.6387 14.9215C23.8675 15.4566 22.1214 16.3076 20.5166 17.4735C18.9118 18.6395 17.563 20.0371 16.5067 21.5563L16.5445 12.0064ZM6.62012 33.1386L14.1042 26.7265C13.6126 28.5434 13.4331 30.4154 13.5733 32.2632C13.7125 34.2225 14.2412 35.9545 15.0197 37.5885L6.62012 33.1386ZM39.6901 9.11183L41.3266 18.4754C38.6417 15.9177 35.0882 14.4104 31.285 14.2161M25.8127 24.763C27.3327 23.6586 29.209 23.1754 31.0288 23.4198C32.8485 23.6642 34.4627 24.616 35.5161 26.066L39.337 23.2899C37.5813 20.8733 34.891 19.2869 31.8581 18.8796C28.8252 18.4724 25.6981 19.2776 23.1646 21.1183C20.6312 22.9589 18.899 25.6841 18.3492 28.6945C17.7993 31.7048 18.4767 34.7536 20.2325 37.1702L24.0534 34.3941C23 32.9442 22.5935 31.1149 22.9234 29.3087C23.2533 27.5025 24.2926 25.8674 25.8127 24.763Z" fill="#F49204"/>
<path d="M28.4099 55.5254C26.9226 55.5254 25.45 55.2229 24.0759 54.6352C22.7019 54.0475 21.4534 53.186 20.4018 52.1001C18.2779 49.9068 17.0847 46.9322 17.0847 43.8305C17.0847 40.7288 18.2779 37.7542 20.4018 35.561C22.5257 33.3677 25.4063 32.1356 28.4099 32.1356C30.6749 26.639 35.8844 22.7797 42 22.7797C49.769 22.7797 56.1337 29.0014 56.7227 36.8837L57.8552 36.8136C60.2581 36.8136 62.5625 37.7993 64.2616 39.5539C65.9607 41.3084 66.9153 43.6881 66.9153 46.1695C66.9153 48.6508 65.9607 51.0306 64.2616 52.7851C62.5625 54.5397 60.2581 55.5254 57.8552 55.5254H55.5901C54.9894 55.5254 54.4133 55.279 53.9885 54.8404C53.5638 54.4017 53.3251 53.8068 53.3251 53.1864C53.3251 52.5661 53.5638 51.9712 53.9885 51.5325C54.4133 51.0939 54.9894 50.8475 55.5901 50.8475H57.8552C59.0566 50.8475 60.2088 50.3546 61.0584 49.4773C61.9079 48.6 62.3852 47.4102 62.3852 46.1695C62.3852 44.9288 61.9079 43.739 61.0584 42.8617C60.2088 41.9844 59.0566 41.4915 57.8552 41.4915H53.3251V39.1525C53.3251 36.0509 52.1319 33.0762 50.0081 30.883C47.8842 28.6898 45.0036 27.4576 42 27.4576C36.3374 27.4576 31.6941 31.7146 30.8108 37.258C30.0633 36.9773 29.2479 36.8136 28.4099 36.8136C26.6077 36.8136 24.8793 37.5528 23.605 38.8688C22.3307 40.1847 21.6148 41.9695 21.6148 43.8305C21.6148 45.6915 22.3307 47.4763 23.605 48.7922C24.8793 50.1082 26.6077 50.8475 28.4099 50.8475H30.6749C31.2756 50.8475 31.8517 51.0939 32.2765 51.5325C32.7013 51.9712 32.9399 52.5661 32.9399 53.1864C32.9399 53.8068 32.7013 54.4017 32.2765 54.8404C31.8517 55.279 31.2756 55.5254 30.6749 55.5254H28.4099Z" fill="#808080"/>
<path d="M113.172 59L104.183 25.9684H113.451L118.57 48.1615H118.871L124.204 25.9684H133.3L138.72 48.0325H138.999L144.031 25.9684H153.279L144.311 59H134.612L128.935 38.2262H128.526L122.849 59H113.172ZM172.391 59.6451C168.993 59.6451 166.069 58.957 163.617 57.5807C161.18 56.19 159.302 54.2259 157.983 51.6883C156.664 49.1364 156.004 46.1185 156.004 42.6347C156.004 39.237 156.664 36.2549 157.983 33.6887C159.302 31.1224 161.158 29.1225 163.553 27.6888C165.961 26.2551 168.785 25.5383 172.026 25.5383C174.205 25.5383 176.233 25.8895 178.111 26.592C180.004 27.2802 181.653 28.3196 183.058 29.7103C184.477 31.1009 185.581 32.85 186.369 34.9575C187.158 37.0506 187.552 39.5022 187.552 42.3122V44.8282H159.66V39.1509H178.929C178.929 37.832 178.642 36.6635 178.068 35.6456C177.495 34.6277 176.699 33.832 175.681 33.2586C174.678 32.6708 173.509 32.3769 172.176 32.3769C170.785 32.3769 169.552 32.6994 168.477 33.3446C167.416 33.9754 166.585 34.8284 165.983 35.9037C165.38 36.9646 165.072 38.1474 165.058 39.452V44.8497C165.058 46.4841 165.359 47.8963 165.961 49.0862C166.578 50.2762 167.445 51.1937 168.563 51.8389C169.681 52.484 171.008 52.8066 172.542 52.8066C173.56 52.8066 174.491 52.6632 175.337 52.3765C176.183 52.0897 176.907 51.6596 177.509 51.0862C178.111 50.5127 178.57 49.8102 178.886 48.9787L187.359 49.5378C186.928 51.5736 186.047 53.3514 184.713 54.871C183.394 56.3764 181.688 57.552 179.595 58.3979C177.516 59.2294 175.115 59.6451 172.391 59.6451ZM202.95 59.6236C200.842 59.6236 198.964 59.2581 197.315 58.5269C195.667 57.7814 194.362 56.6846 193.401 55.2366C192.455 53.7743 191.982 51.9535 191.982 49.7744C191.982 47.9393 192.319 46.3981 192.993 45.1508C193.667 43.9035 194.584 42.9 195.745 42.1401C196.907 41.3803 198.226 40.8068 199.702 40.4197C201.193 40.0326 202.756 39.7602 204.39 39.6025C206.312 39.4018 207.86 39.2154 209.036 39.0434C210.211 38.857 211.064 38.5846 211.595 38.2262C212.125 37.8678 212.39 37.3373 212.39 36.6349V36.5058C212.39 35.1438 211.96 34.0901 211.1 33.3446C210.254 32.5991 209.05 32.2263 207.487 32.2263C205.838 32.2263 204.527 32.5919 203.552 33.3231C202.577 34.0399 201.932 34.9431 201.616 36.0327L193.143 35.3446C193.573 33.3374 194.419 31.6027 195.681 30.1404C196.943 28.6637 198.57 27.5311 200.563 26.7426C202.57 25.9397 204.892 25.5383 207.53 25.5383C209.365 25.5383 211.122 25.7533 212.799 26.1834C214.491 26.6135 215.989 27.2802 217.293 28.1834C218.612 29.0866 219.652 30.2479 220.412 31.6672C221.171 33.0722 221.551 34.7568 221.551 36.7209V59H212.863V54.4194H212.605C212.075 55.4517 211.365 56.3621 210.476 57.1506C209.587 57.9248 208.519 58.5341 207.272 58.9785C206.025 59.4086 204.584 59.6236 202.95 59.6236ZM205.573 53.3012C206.921 53.3012 208.111 53.036 209.143 52.5055C210.175 51.9607 210.985 51.2295 211.573 50.312C212.161 49.3945 212.455 48.355 212.455 47.1938V43.6885C212.168 43.8749 211.774 44.0469 211.272 44.2046C210.785 44.348 210.233 44.4842 209.616 44.6132C209 44.7279 208.383 44.8354 207.767 44.9358C207.15 45.0218 206.591 45.1006 206.089 45.1723C205.014 45.33 204.075 45.5809 203.272 45.925C202.469 46.2691 201.846 46.735 201.401 47.3228C200.957 47.8963 200.735 48.6131 200.735 49.4733C200.735 50.7206 201.186 51.674 202.089 52.3335C203.007 52.9786 204.168 53.3012 205.573 53.3012Z" fill="#F49204"/>
<path d="M246.228 25.9684V32.85H226.336V25.9684H246.228ZM230.852 18.0546H240.013V48.8497C240.013 49.6955 240.142 50.355 240.4 50.8281C240.659 51.2869 241.017 51.6095 241.476 51.7958C241.949 51.9822 242.494 52.0754 243.11 52.0754C243.54 52.0754 243.97 52.0396 244.4 51.9679C244.831 51.8819 245.16 51.8173 245.39 51.7743L246.83 58.5914C246.372 58.7348 245.727 58.8996 244.895 59.086C244.064 59.2867 243.053 59.4086 241.863 59.4516C239.655 59.5376 237.72 59.2437 236.056 58.5699C234.408 57.8961 233.125 56.8495 232.207 55.4302C231.29 54.0109 230.838 52.2188 230.852 50.0539V18.0546ZM262.067 39.9036V59H252.906V14.9579H261.809V31.7962H262.196C262.941 29.8465 264.146 28.3196 265.809 27.2157C267.472 26.0974 269.558 25.5383 272.067 25.5383C274.36 25.5383 276.36 26.0401 278.066 27.0436C279.787 28.0329 281.12 29.4594 282.066 31.3231C283.027 33.1726 283.5 35.3876 283.486 37.9682V59H274.325V39.6025C274.339 37.5667 273.823 35.9825 272.776 34.8499C271.744 33.7173 270.296 33.1511 268.432 33.1511C267.185 33.1511 266.081 33.4163 265.12 33.9467C264.174 34.4772 263.429 35.2514 262.884 36.2693C262.353 37.2728 262.081 38.4843 262.067 39.9036ZM305.749 59.6451C302.351 59.6451 299.426 58.957 296.975 57.5807C294.537 56.19 292.659 54.2259 291.34 51.6883C290.021 49.1364 289.362 46.1185 289.362 42.6347C289.362 39.237 290.021 36.2549 291.34 33.6887C292.659 31.1224 294.516 29.1225 296.91 27.6888C299.319 26.2551 302.143 25.5383 305.383 25.5383C307.562 25.5383 309.591 25.8895 311.469 26.592C313.361 27.2802 315.01 28.3196 316.415 29.7103C317.834 31.1009 318.938 32.85 319.727 34.9575C320.515 37.0506 320.91 39.5022 320.91 42.3122V44.8282H293.018V39.1509H312.286C312.286 37.832 311.999 36.6635 311.426 35.6456C310.853 34.6277 310.057 33.832 309.039 33.2586C308.035 32.6708 306.867 32.3769 305.534 32.3769C304.143 32.3769 302.91 32.6994 301.835 33.3446C300.774 33.9754 299.942 34.8284 299.34 35.9037C298.738 36.9646 298.43 38.1474 298.415 39.452V44.8497C298.415 46.4841 298.717 47.8963 299.319 49.0862C299.935 50.2762 300.803 51.1937 301.921 51.8389C303.039 52.484 304.365 52.8066 305.899 52.8066C306.917 52.8066 307.849 52.6632 308.695 52.3765C309.541 52.0897 310.265 51.6596 310.867 51.0862C311.469 50.5127 311.928 49.8102 312.243 48.9787L320.716 49.5378C320.286 51.5736 319.404 53.3514 318.071 54.871C316.752 56.3764 315.046 57.552 312.953 58.3979C310.874 59.2294 308.473 59.6451 305.749 59.6451ZM326.888 59V25.9684H335.77V31.7317H336.114C336.716 29.6816 337.727 28.1332 339.146 27.0867C340.565 26.0257 342.2 25.4953 344.049 25.4953C344.508 25.4953 345.002 25.524 345.533 25.5813C346.063 25.6387 346.529 25.7175 346.931 25.8179V33.9467C346.501 33.8177 345.906 33.703 345.146 33.6027C344.386 33.5023 343.691 33.4521 343.06 33.4521C341.712 33.4521 340.508 33.746 339.447 34.3338C338.4 34.9073 337.569 35.7101 336.952 36.7424C336.35 37.7746 336.049 38.9646 336.049 40.3122V59H326.888Z" fill="#05A5E3"/>
</svg>
